<?xml version="1.0" encoding="UTF-8" standalone="yes"?>
<svg xmlns="http://www.w3.org/2000/svg" xmlns:xlink="http://www.w3.org/1999/xlink" viewBox="0 0 50 50" version="1.1" width="50" height="50" fill="#000000">
  <g id="surface1">
    <path style=" " d="M 21.5 14 C 20.121094 14 19 15.121094 19 16.5 C 19 17.171875 19.273438 17.8125 19.75 18.28125 C 17.972656 18.847656 16.25 20.210938 14.882813 22 L 28.117188 22 C 26.75 20.210938 25.03125 18.847656 23.25 18.28125 C 23.730469 17.8125 24 17.171875 24 16.5 C 24 15.121094 22.878906 14 21.5 14 Z M 7 20 C 5.230469 20 4.0625 21.066406 3.554688 22.03125 C 3.042969 23 3 23.945313 3 23.945313 L 3 24 C 3 25.707031 3.570313 27.097656 4.414063 28.179688 C 5.261719 29.261719 6.347656 30.054688 7.421875 30.816406 C 8.742188 31.746094 9.390625 32.605469 9.554688 32.921875 C 9.433594 32.957031 9.390625 33 9 33 C 8.640625 32.996094 8.304688 33.183594 8.121094 33.496094 C 7.941406 33.808594 7.941406 34.191406 8.121094 34.503906 C 8.304688 34.816406 8.640625 35.003906 9 35 C 9.816406 35 10.488281 34.910156 11.0625 34.46875 C 11.421875 34.191406 11.609375 33.742188 11.671875 33.289063 C 12.15625 33.820313 12.734375 34.332031 13.425781 34.816406 C 15.113281 36.003906 17.109375 36.675781 19.59375 36.902344 C 19.289063 37.265625 19.085938 37.714844 19.03125 38.210938 C 16.042969 38.730469 14 40.1875 14 42 L 14 43 L 29 43 L 29 42 C 29 40.1875 26.957031 38.730469 23.96875 38.210938 C 23.910156 37.699219 23.703125 37.238281 23.382813 36.871094 C 28.332031 36.375 31.851563 34.03125 36.667969 29.75 C 37.421875 29.074219 38.191406 28.351563 38.96875 27.625 C 41.488281 25.265625 44.089844 22.824219 46.367188 21.933594 C 46.8125 21.753906 47.074219 21.289063 46.984375 20.8125 C 46.894531 20.34375 46.480469 20 46 20 L 41 20 C 40.78125 20 40.566406 20.074219 40.390625 20.207031 C 37.996094 22.046875 33.011719 24 28.5 24 L 16 24 C 14.335938 24 12.894531 24.535156 11.839844 25.4375 C 11.796875 25.136719 11.761719 24.84375 11.691406 24.535156 C 11.457031 23.5 11.066406 22.417969 10.324219 21.53125 C 9.582031 20.644531 8.417969 20 7 20 Z M 7 22 C 7.871094 22 8.355469 22.296875 8.789063 22.816406 C 9.226563 23.335938 9.550781 24.132813 9.742188 24.980469 C 10.128906 26.667969 10.003906 28.4375 10.003906 28.4375 C 9.988281 28.574219 10 28.714844 10.039063 28.84375 C 10.015625 29.058594 10 29.277344 10 29.5 C 10 29.796875 10.039063 30.089844 10.09375 30.378906 C 9.65625 29.988281 9.160156 29.597656 8.578125 29.183594 C 7.527344 28.445313 6.613281 27.738281 5.992188 26.945313 C 5.375 26.160156 5.011719 25.300781 5.007813 24.03125 C 5.007813 24.007813 5.046875 23.488281 5.320313 22.96875 C 5.601563 22.433594 5.9375 22 7 22 Z "/>
  </g>
</svg>
